<?xml version="1.0" encoding="UTF-8" standalone="no"?>
<svg
   viewBox="0 0 81.9 71.52"
   version="1.1"
   id="svg8"
   sodipodi:docname="logo.svg"
   xml:space="preserve"
   inkscape:version="1.3.2 (1:1.3.2+202311252150+091e20ef0f)"
   xmlns:inkscape="http://www.inkscape.org/namespaces/inkscape"
   xmlns:sodipodi="http://sodipodi.sourceforge.net/DTD/sodipodi-0.dtd"
   xmlns="http://www.w3.org/2000/svg"
   xmlns:svg="http://www.w3.org/2000/svg"><sodipodi:namedview
     id="namedview8"
     pagecolor="#ffffff"
     bordercolor="#666666"
     borderopacity="1.0"
     inkscape:showpageshadow="2"
     inkscape:pageopacity="0.0"
     inkscape:pagecheckerboard="0"
     inkscape:deskcolor="#d1d1d1"
     inkscape:zoom="16.442954"
     inkscape:cx="40.929385"
     inkscape:cy="35.759998"
     inkscape:window-width="3370"
     inkscape:window-height="1376"
     inkscape:window-x="70"
     inkscape:window-y="27"
     inkscape:window-maximized="1"
     inkscape:current-layer="svg8" /><defs
     id="defs2"><style
       id="style1">.cls-1{fill:#84aff1;}.cls-2{fill:#3865ab;}.cls-3{fill:url(#linear-gradient);}</style><linearGradient
       id="linear-gradient"
       x1="42.95"
       y1="16.88"
       x2="81.9"
       y2="16.88"
       gradientUnits="userSpaceOnUse"><stop
         offset="0"
         stop-color="#f2cc0c"
         id="stop1" /><stop
         offset="1"
         stop-color="#ff9830"
         id="stop2" /></linearGradient></defs><g
     id="Layer_2"
     data-name="Layer 2"
     transform="translate(4.228724,-0.92259743)"
     style="fill:#677821"><path
       style="display:inline;fill:#ffcc00;stroke-width:1.32095;stroke-dasharray:none"
       d="M 3.0012633,58.695859 V 47.752212 H 14.424658 25.848051 V 58.695859 69.639506 H 14.424658 3.0012633 Z m 19.5033557,0 V 50.72456 H 14.424658 6.3446957 v 7.971299 7.971299 h 8.0799623 8.079961 z m -13.0320352,0.06755 0.076236,-4.661184 4.8061842,-0.07394 4.806183,-0.07394 v 4.735117 4.735117 H 14.27877 9.3963518 Z m 19.4402792,9.389919 v -1.486174 h 1.671717 1.671716 V 65.045873 63.424591 H 30.58458 28.912863 v -6.21491 -6.214911 h 1.671717 1.671716 v 1.486174 1.486174 h 1.671716 1.671717 v -3.09888 -3.098879 l -3.273778,-0.07613 -3.273777,-0.07613 -0.08356,-1.553728 -0.08356,-1.553727 h -6.380432 -6.380437 l -0.08356,-1.553729 -0.08356,-1.553727 -1.60206,-0.08104 -1.602062,-0.08104 V 39.767421 38.294732 H 11.08122 9.4095041 v 1.486174 1.486174 H 7.8771021 6.3446957 V 39.780913 38.294739 H 7.8771021 9.4095085 V 36.673458 35.052177 H 7.8771021 6.3446957 v -1.486175 -1.486174 h 1.5324064 1.5324064 v 1.486174 1.486175 h 4.8669965 4.866997 l 0.0785,3.175009 0.0785,3.175008 6.4779,0.07254 6.4779,0.07253 V 39.921 38.294739 h 1.671715 1.671717 v 3.107455 3.107456 h 1.532407 1.532406 v -1.486175 -1.486174 h 1.671717 1.671716 v 1.486174 1.486175 h 1.671715 1.671717 v -1.486175 -1.486174 h 1.532406 1.532407 v 1.486174 1.486175 h 1.671717 1.671716 v 1.621281 1.621281 h 1.671715 1.671717 v 1.486174 1.486174 h -1.67172 -1.671715 v 1.607798 1.607796 l 1.602061,0.08104 1.602061,0.08104 0.07879,3.039902 0.07879,3.039902 h -1.680842 -1.680841 v -3.107455 -3.107456 h -3.204123 -3.204122 v 3.107456 3.107455 H 43.67968 42.007965 v -3.107454 -3.107456 h -1.671716 -1.671717 v 1.621282 1.621281 H 35.46041 32.256287 v 1.621281 1.621281 h 4.87584 4.875838 v 1.486174 1.486174 h -3.190218 -3.190219 l -0.08356,1.553729 -0.08356,1.553727 -1.602061,0.08104 -1.602062,0.08104 v 1.472691 1.472689 h -1.6717 -1.671717 z M 42.007974,49.373493 v -1.621281 h -1.671716 -1.671717 v 1.441139 c 0,0.792626 0.08359,1.522203 0.185747,1.621281 0.102156,0.09907 0.854432,0.180142 1.671716,0.180142 h 1.48597 z m 6.408245,0 v -1.621281 h -1.532406 -1.532406 v 1.621281 1.621281 h 1.532406 1.532406 z m -9.751678,18.779839 v -1.486174 h 1.671717 1.671716 v 1.486174 1.486174 h -1.671716 -1.671717 z m 6.686866,0 v -1.486174 h 1.532406 1.532406 v 1.486174 1.486174 h -1.532406 -1.532406 z m 9.751677,0 v -1.486174 h -1.671717 -1.671715 v -1.621281 -1.621282 h 1.671715 1.671717 v -1.486174 -1.486174 h 3.204124 3.204122 v -3.242562 -3.242563 h -1.671716 -1.671717 v -1.486174 -1.486174 h 1.671717 1.671716 v 1.472689 1.472691 l 1.602061,0.08104 1.602061,0.08104 0.0748,6.282464 0.0748,6.282465 h 1.527272 1.52727 v 1.486174 1.486174 h -6.408245 -6.408245 z m 6.408246,-3.107455 v -1.621282 h -1.671716 -1.671717 v 1.621282 1.621281 h 1.671717 1.671716 z M 45.351407,61.938421 v -1.486174 h 1.532406 1.532406 v 1.486174 1.486174 h -1.532406 -1.532406 z m 22.568167,-9.457473 v -1.486174 h 1.671717 1.671717 v 1.486174 1.486174 H 69.591291 67.919574 Z M 64.854762,47.617105 V 44.50965 H 63.183045 61.51133 v 1.634765 1.634766 l -1.602062,-0.08104 -1.60206,-0.08104 -0.08356,-1.553728 -0.08356,-1.553727 h -1.504599 -1.504597 l -0.08356,-1.553729 -0.08356,-1.553728 -1.602061,-0.08104 -1.602061,-0.08104 v -1.47269 -1.472689 h 1.671716 1.671717 V 36.673461 35.05218 H 53.431366 51.75965 v -1.621282 -1.621281 h -1.671716 -1.671717 v -1.486174 -1.486174 h 8.219271 8.219273 v 1.621281 1.621281 h 1.532405 1.532407 v 4.59363 4.593629 h -1.532407 -1.532405 v 1.621281 1.621282 h 1.532405 1.532407 v 3.107455 3.107455 H 66.387154 64.854749 Z M 61.51133,41.402194 v -3.107455 h 1.671715 1.671717 V 36.673458 35.052177 H 63.183045 61.51133 v -1.621282 -1.621281 h -3.204122 -3.204124 v 1.621281 1.621282 h 1.532406 1.532407 v 4.728736 4.728737 h 1.671717 1.671716 z M 3.0012633,43.023475 v -1.486174 h 1.6717161 1.6717163 v 1.486174 1.486175 H 4.6729794 3.0012633 Z M 22.504619,36.686943 v -1.634766 h 1.671717 1.671715 v -1.486175 -1.486174 h 1.532407 1.532405 v 1.486174 1.486175 h -1.518501 -1.518503 l -0.08356,1.553728 -0.08356,1.553727 -1.602061,0.08104 -1.602062,0.08104 z m 16.272911,1.233389 c -0.08148,-0.205924 -0.108887,-0.905101 -0.06091,-1.553728 l 0.08723,-1.17932 1.602061,-0.08104 1.602062,-0.08104 V 31.93123 28.83726 H 40.33626 38.664543 v 1.486174 1.486174 H 37.132138 35.59973 v 1.621281 1.621282 H 33.928013 32.256298 V 31.9582 28.86423 l -1.60206,-0.08104 -1.602062,-0.08104 -0.07326,-9.38992 -0.07326,-9.3899192 h 1.675326 1.675327 V 8.301039 6.6797579 h 3.204122 3.204122 V 5.1935836 3.7074093 h 3.343434 3.343432 v 1.4861743 1.4861743 h -1.67173 -1.671715 V 8.301039 9.9223201 h 1.671715 1.671718 V 22.487248 35.052177 h 1.532406 1.532406 v 1.621281 1.621281 h -1.532406 -1.532406 v -1.621281 -1.621281 h -1.671718 -1.671715 v 1.621281 1.621281 h -1.541151 c -1.056333,0 -1.587755,-0.117788 -1.689293,-0.374407 z M 35.599729,22.487248 v -3.107455 h 1.532407 1.532405 v 3.107455 3.107456 h 1.671717 1.671716 v -3.107456 -3.107455 h -1.671716 -1.671717 v -3.107455 -3.107456 h 1.671717 1.671716 V 11.543601 9.9223201 h -4.875838 -4.87584 v 1.6212809 1.621281 h 1.671716 1.671717 v 3.107456 3.107455 h -1.671717 -1.671716 v 3.107455 3.107456 h 1.671716 1.671717 z M 3.0012633,30.32344 v -1.486174 h 1.6717161 1.6717163 v 1.486174 1.486174 H 4.6729794 3.0012633 Z m 6.4082452,0 v -1.486174 h 8.2192715 8.219271 v 1.486174 1.486174 H 17.62878 9.4095085 Z M 3.0012633,14.651056 V 3.7074093 H 14.424658 25.848051 V 14.651056 25.594704 H 14.424658 3.0012633 Z m 19.5033557,0 V 6.6797579 H 14.424658 6.3446957 v 7.9712981 7.971299 h 8.0799623 8.079961 z M 9.5952549,19.199651 C 9.4930947,19.100571 9.4095085,16.972642 9.4095085,14.470914 V 9.9223201 h 4.8758395 4.875837 v 4.7287359 4.728737 h -4.690091 c -2.579552,0 -4.7736789,-0.08106 -4.8758391,-0.180142 z M 48.416219,14.651056 V 3.7074093 H 59.839614 71.263008 V 14.651056 25.594704 H 59.839614 48.416219 Z m 19.503355,0 V 6.6797579 h -8.07996 -8.079962 v 7.9712981 7.971299 h 8.079962 8.07996 z m -12.81649,0.0064 V 9.9223201 h 4.882419 4.882417 l -0.07624,4.6611829 -0.07623,4.661183 -4.806185,0.07394 -4.806183,0.07394 z"
       id="path8"
       inkscape:label="path8" /></g><g
     inkscape:groupmode="layer"
     id="layer1"
     inkscape:label="Orange"
     style="display:inline"><rect
       style="fill:#ffc200;stroke-width:1.394;stroke-dasharray:none"
       id="rect10"
       width="22.998388"
       height="22.181417"
       x="7.198401"
       y="2.7122469" /><rect
       style="fill:#ffc200;stroke-width:1.394;stroke-dasharray:none"
       id="rect11"
       width="23.227671"
       height="22.430628"
       x="52.608963"
       y="2.6950133" /><rect
       style="fill:#ffc200;stroke-width:1.394;stroke-dasharray:none"
       id="rect12"
       width="23.093838"
       height="22.200964"
       x="7.0729675"
       y="46.523239" /></g><g
     inkscape:groupmode="layer"
     id="layer2"
     inkscape:label="White"
     style="display:inline"><rect
       style="fill:#ffffff;stroke-width:1.394;stroke-dasharray:none"
       id="rect13"
       width="16.361124"
       height="16.055529"
       x="10.584583"
       y="5.551724" /><rect
       style="fill:#ffffff;stroke-width:1.394;stroke-dasharray:none"
       id="rect14"
       width="16.035984"
       height="15.910722"
       x="56.002712"
       y="5.6432009" /><rect
       style="fill:#ffffff;stroke-width:1.394;stroke-dasharray:none"
       id="rect15"
       width="16.078623"
       height="15.876806"
       x="10.554175"
       y="49.661987" /></g><g
     inkscape:groupmode="layer"
     id="layer3"
     inkscape:label="Blue"><rect
       style="fill:#0066ff;stroke-width:1.394;stroke-dasharray:none"
       id="rect16"
       width="10.381733"
       height="10.052906"
       x="13.412505"
       y="8.7837772" /><rect
       style="fill:#0066ff;stroke-width:1.394;stroke-dasharray:none"
       id="rect17"
       width="9.8962164"
       height="9.4768028"
       x="59.237564"
       y="8.8892994" /><rect
       style="fill:#0066ff;stroke-width:1.394;stroke-dasharray:none"
       id="rect18"
       width="9.9965687"
       height="9.8713312"
       x="13.371696"
       y="52.792347" /></g></svg>
